<?xml version="1.0" encoding="utf-8"?>
<!-- Generator: Adobe Illustrator 25.2.1, SVG Export Plug-In . SVG Version: 6.00 Build 0)  -->
<svg version="1.1" id="Layer_1" xmlns:svgjs="http://svgjs.com/svgjs"
	 xmlns="http://www.w3.org/2000/svg" xmlns:xlink="http://www.w3.org/1999/xlink" x="0px" y="0px" viewBox="0 0 512 512"
	 style="enable-background:new 0 0 512 512;" xml:space="preserve">
<g>
	<g>
		<g>
			<path d="M173.7,146c-13,0-21.7,1.3-26.3,2.5v83.3c5.5,1.2,12.1,1.6,21.3,1.6c33.9,0,54.8-17.1,54.8-46
				C223.5,161.5,205.5,146,173.7,146z"/>
			<path d="M480.7,0.1H31.4C14,0.1,0,14.1,0,31.3v449.3c0,17.3,14,31.3,31.4,31.3h449.3c17.3,0,31.3-14,31.3-31.3V31.4
				C512,14.1,498,0.1,480.7,0.1z M260.7,252.8c-21.7,20.5-54,29.7-91.6,29.7c-8.4,0-15.9-0.4-21.8-1.3v100.9H84.1V103.8
				c19.7-3.3,47.3-5.8,86.2-5.8c39.3,0,67.4,7.5,86.2,22.6c18.1,14.2,30.2,37.7,30.2,65.3S277.4,236.8,260.7,252.8z M356,386.3
				c-26.8,0-50.7-5.8-66.2-14.2l11.3-45.6c11.7,7.1,36,15.4,54.9,15.4c19.2,0,27.2-6.7,27.2-17.2c0-10.4-6.3-15.4-30.1-23.4
				c-42.3-14.2-58.6-37.3-58.2-61.5c0-38,32.7-67,83.3-67c23.9,0,45.2,5.5,57.7,11.7l-11.3,44c-9.2-5-26.8-11.7-44.4-11.7
				c-15.4,0-24.2,6.3-24.2,16.7c0,9.6,7.9,14.6,33,23.4c38.9,13.4,55.3,33.1,55.7,63.1C444.6,358.2,414.5,386.3,356,386.3z"/>
		</g>
	</g>
</g>
</svg>
