<?xml version="1.0" encoding="utf-8"?>
<!-- Generator: Adobe Illustrator 25.2.1, SVG Export Plug-In . SVG Version: 6.00 Build 0)  -->
<svg version="1.1" id="Layer_1" xmlns:svgjs="http://svgjs.com/svgjs"
	 xmlns="http://www.w3.org/2000/svg" xmlns:xlink="http://www.w3.org/1999/xlink" x="0px" y="0px" viewBox="0 0 512 512"
	 style="enable-background:new 0 0 512 512;" xml:space="preserve">
<g>
	<g>
		<g>
			<path d="M207.8,175.2H207c-3.9,15.5-7.7,35.2-12,50.3l-15.5,55.3h57.6l-16.2-55.3C216.3,210,211.7,190.7,207.8,175.2z"/>
			<path d="M480.6,0H31.3C14,0,0,14,0,31.3v449.3C0,497.9,14,512,31.3,512h449.3c17.3,0,31.3-14.1,31.3-31.3V31.3
				C512,14.1,497.9,0,480.6,0z M265.8,391.6l-20.1-66.9h-74.6l-18.6,66.9H91.5l79.6-260.5h77.3l80.8,260.5H265.8z M418.6,391.6
				h-58.8v-189h58.8V391.6z M388.8,179.5c-18.5,0-30.9-13.2-30.6-29.4c-0.4-17,12-29.7,31-29.7c18.9,0,30.9,12.7,31.3,29.7
				C420.5,166.3,408.2,179.5,388.8,179.5z"/>
		</g>
	</g>
</g>
</svg>
