<?xml version="1.0" encoding="utf-8"?>
<!-- Generator: Adobe Illustrator 25.2.1, SVG Export Plug-In . SVG Version: 6.00 Build 0)  -->
<svg version="1.1" id="Layer_1" xmlns:svgjs="http://svgjs.com/svgjs"
	 xmlns="http://www.w3.org/2000/svg" xmlns:xlink="http://www.w3.org/1999/xlink" x="0px" y="0px" viewBox="0 0 448 20"
	 style="enable-background:new 0 0 448 20;" xml:space="preserve">
<style type="text/css">
	.st0{fill-opacity:0.9;}
</style>
<path class="st0" d="M16.7,17.6c0.1,0.2,0.1,0.5,0.1,0.7c0,0.5-0.2,0.9-0.5,1.2c-0.3,0.3-0.7,0.4-1.1,0.4c-0.3,0-0.6-0.1-0.9-0.3
	c-0.3-0.2-0.5-0.5-0.6-0.8l-1.4-3.4h-8l-1.4,3.4c-0.1,0.4-0.3,0.6-0.6,0.8c-0.3,0.2-0.5,0.3-0.8,0.3c-0.5,0-0.8-0.1-1.1-0.4
	C0.1,19.2,0,18.9,0,18.4c0-0.2,0-0.3,0.1-0.5L6.9,1.3C7,0.9,7.2,0.6,7.5,0.4s0.6-0.3,1-0.2c0.3,0,0.6,0.1,0.9,0.3
	C9.7,0.7,9.9,0.9,10,1.3L16.7,17.6z M11.1,12.2L8.3,5.7l-2.7,6.5H11.1z"/>
<path class="st0" d="M31.4,16.5c0.5,0,0.9,0.2,1.2,0.5s0.5,0.7,0.5,1.2s-0.2,0.9-0.5,1.2c-0.3,0.3-0.7,0.4-1.2,0.4h-8.9
	c-0.5,0-0.9-0.2-1.2-0.5c-0.3-0.3-0.5-0.7-0.5-1.2V2c0-0.5,0.2-0.9,0.5-1.2s0.7-0.5,1.3-0.5c0.5,0,0.8,0.2,1.2,0.5
	c0.3,0.3,0.5,0.7,0.5,1.2v14.5H31.4z"/>
<path class="st0" d="M48.6,16.5c0.5,0,0.9,0.2,1.2,0.5s0.5,0.7,0.5,1.1c0,0.5-0.2,0.8-0.5,1.1c-0.3,0.3-0.7,0.4-1.2,0.4h-9.1
	c-0.5,0-0.9-0.2-1.2-0.5s-0.5-0.7-0.5-1.2V2c0-0.5,0.2-0.9,0.5-1.2s0.7-0.5,1.2-0.5h9.1c0.5,0,0.9,0.2,1.2,0.5s0.5,0.7,0.5,1.2
	s-0.2,0.8-0.5,1.1s-0.7,0.4-1.2,0.4h-7.4v4.7h6.2c0.5,0,0.9,0.2,1.2,0.5C48.8,9,49,9.4,49,9.8c0,0.5-0.2,0.8-0.5,1.1
	s-0.7,0.4-1.2,0.4h-6.2v5.1h7.5V16.5z"/>
<path class="st0" d="M69.3,17.2c0.2,0.3,0.3,0.6,0.3,1c0,0.5-0.2,0.9-0.5,1.2c-0.3,0.3-0.7,0.5-1.1,0.5c-0.5,0-1-0.2-1.3-0.7
	l-4.9-6.6L57,19.1c-0.4,0.5-0.8,0.8-1.4,0.8c-0.4,0-0.7-0.1-1-0.4s-0.4-0.6-0.4-1s0.1-0.8,0.4-1.1l5.3-7.3L54.6,3
	c-0.2-0.3-0.4-0.6-0.4-1c0-0.5,0.2-0.9,0.5-1.2s0.7-0.5,1.1-0.5c0.5,0,1,0.2,1.3,0.7l4.8,6.5l4.7-6.4c0.2-0.3,0.4-0.5,0.6-0.6
	s0.5-0.2,0.7-0.2c0.4,0,0.8,0.2,1.1,0.5c0.3,0.3,0.5,0.7,0.5,1.1s-0.1,0.7-0.4,1L63.8,10L69.3,17.2z"/>
<path class="st0" d="M89.5,17.6c0.1,0.2,0.1,0.5,0.1,0.7c0,0.5-0.2,0.9-0.5,1.2c-0.3,0.3-0.7,0.4-1.1,0.4c-0.3,0-0.6-0.1-0.9-0.3
	c-0.3-0.2-0.5-0.5-0.6-0.8l-1.4-3.4H77l-1.4,3.4c-0.1,0.4-0.3,0.6-0.6,0.8c-0.3,0.2-0.5,0.3-0.8,0.3c-0.5,0-0.8-0.1-1.1-0.4
	c-0.2-0.3-0.4-0.6-0.4-1.1c0-0.2,0-0.3,0.1-0.5l6.8-16.6c0.1-0.4,0.4-0.7,0.7-0.9c0.3-0.2,0.6-0.3,1-0.2c0.3,0,0.6,0.1,0.9,0.3
	s0.5,0.5,0.6,0.8L89.5,17.6z M83.8,12.2L81,5.7l-2.7,6.5H83.8z"/>
<path class="st0" d="M108.1,0.3c0.4,0,0.8,0.1,1.1,0.4c0.3,0.3,0.4,0.7,0.4,1.1V18c0,0.5-0.2,0.9-0.5,1.2c-0.3,0.3-0.7,0.5-1.2,0.5
	c-0.3,0-0.5,0-0.8-0.1c-0.2-0.1-0.4-0.2-0.5-0.4l-10-12.9v11.9c0,0.4-0.1,0.8-0.4,1.1c-0.3,0.3-0.6,0.4-1.1,0.4
	c-0.4,0-0.8-0.1-1.1-0.4c-0.3-0.3-0.4-0.7-0.4-1.1V2c0-0.5,0.2-0.9,0.5-1.2s0.7-0.5,1.2-0.5c0.3,0,0.5,0.1,0.8,0.2s0.5,0.3,0.6,0.4
	l9.9,12.9v-12c0-0.4,0.1-0.8,0.4-1.1S107.6,0.3,108.1,0.3z"/>
<path class="st0" d="M123.4,0.3c1.7,0,3.2,0.4,4.4,1.3c1.2,0.9,2.2,2,2.8,3.5c0.7,1.5,1,3.1,1,4.9s-0.3,3.5-1,4.9
	c-0.6,1.5-1.6,2.6-2.8,3.5s-2.7,1.3-4.4,1.3h-6.5c-0.5,0-0.9-0.2-1.2-0.5c-0.3-0.3-0.5-0.7-0.5-1.2V2c0-0.5,0.2-0.9,0.5-1.2
	s0.7-0.5,1.2-0.5C116.9,0.3,123.4,0.3,123.4,0.3z M123.2,16.5c1.6,0,2.9-0.6,3.7-1.8c0.8-1.2,1.2-2.8,1.2-4.7s-0.4-3.4-1.3-4.7
	c-0.8-1.2-2-1.9-3.7-1.9h-4.5v13.1H123.2z"/>
<path class="st0" d="M147.2,16.5c0.5,0,0.9,0.2,1.2,0.5s0.5,0.7,0.5,1.1c0,0.5-0.2,0.8-0.5,1.1c-0.3,0.3-0.7,0.4-1.2,0.4h-9.1
	c-0.5,0-0.9-0.2-1.2-0.5s-0.5-0.7-0.5-1.2V2c0-0.5,0.2-0.9,0.5-1.2s0.7-0.5,1.2-0.5h9.1c0.5,0,0.9,0.2,1.2,0.5s0.5,0.7,0.5,1.2
	s-0.2,0.8-0.5,1.1s-0.7,0.4-1.2,0.4h-7.4v4.7h6.2c0.5,0,0.9,0.2,1.2,0.5s0.5,0.7,0.5,1.2s-0.2,0.8-0.5,1.1s-0.7,0.4-1.2,0.4h-6.2
	v5.1H147.2z"/>
<path class="st0" d="M186.5,18.6c0.2,0.1,0.3,0.3,0.3,0.5s-0.1,0.3-0.2,0.4c-0.1,0.1-0.2,0.1-0.4,0.1c-0.1,0-0.2,0-0.2-0.1
	c-0.5-0.3-0.9-0.7-1.2-1.4c-0.3-0.7-0.4-1.8-0.4-3.3s-0.4-2.6-1.2-3.1c-0.8-0.6-1.7-0.9-2.8-0.9H174v8.1c0,0.1-0.1,0.3-0.2,0.4
	c-0.1,0.1-0.2,0.2-0.4,0.2s-0.3-0.1-0.4-0.2c-0.1-0.1-0.2-0.2-0.2-0.4V0.8c0-0.1,0.1-0.3,0.2-0.4c0.1-0.1,0.2-0.2,0.4-0.2h7.2
	c1.1,0,2,0.2,2.8,0.7c0.8,0.4,1.5,1,1.9,1.8c0.5,0.8,0.7,1.6,0.7,2.6c0,1.2-0.3,2.3-1,3.2c-0.6,0.9-1.5,1.5-2.5,1.8
	c0.9,0.3,1.6,0.8,2.2,1.7c0.6,0.8,0.8,1.8,0.8,3s0.1,2.1,0.2,2.6C185.9,18.1,186.1,18.4,186.5,18.6z M180.8,9.9
	c1.1-0.1,2.1-0.6,2.9-1.4c0.8-0.8,1.2-1.9,1.2-3.2c0-1.1-0.4-2.1-1.2-2.8s-1.9-1.1-3.2-1.1H174v8.5C174,9.9,180.8,9.9,180.8,9.9z"/>
<path class="st0" d="M209.2,10c0,1.9-0.4,3.7-1.2,5.2s-1.8,2.7-3.2,3.6c-1.4,0.8-3,1.2-4.7,1.2c-1.8,0-3.3-0.4-4.7-1.2
	c-1.4-0.9-2.5-2-3.2-3.6c-0.8-1.5-1.1-3.2-1.1-5.2c0-1.9,0.4-3.7,1.1-5.2c0.8-1.5,1.9-2.7,3.2-3.5c1.4-0.9,3-1.3,4.7-1.3
	c1.8,0,3.3,0.4,4.7,1.3c1.4,0.8,2.5,2,3.2,3.5C208.8,6.3,209.2,8.1,209.2,10z M208.1,10c0-1.7-0.3-3.3-1-4.6
	c-0.7-1.4-1.6-2.4-2.8-3.1s-2.6-1.1-4.1-1.1s-2.9,0.4-4.1,1.1c-1.2,0.7-2.1,1.8-2.8,3.1c-0.7,1.4-1,2.9-1,4.6s0.3,3.3,1,4.6
	c0.7,1.4,1.6,2.4,2.8,3.1s2.6,1.1,4.1,1.1s2.9-0.4,4.1-1.1c1.2-0.7,2.2-1.8,2.8-3.1C207.7,13.3,208.1,11.7,208.1,10z"/>
<path class="st0" d="M229,1.9c0.2,0.1,0.2,0.3,0.2,0.4s0,0.3-0.1,0.4c-0.1,0.1-0.2,0.2-0.4,0.2c-0.1,0-0.2,0-0.3-0.1
	C226.7,1.6,224.9,1,223,1c-1.5,0-2.9,0.4-4.2,1.2s-2.3,1.8-3,3.2s-1.1,2.9-1.1,4.6s0.4,3.2,1.1,4.6c0.7,1.4,1.8,2.4,3,3.2
	c1.3,0.8,2.7,1.1,4.2,1.1c1.9,0,3.7-0.6,5.3-1.7c0.1-0.1,0.2-0.1,0.3-0.1c0.2,0,0.3,0.1,0.4,0.2c0.1,0.1,0.1,0.2,0.1,0.3
	c0,0.2-0.1,0.3-0.2,0.4c-0.7,0.5-1.6,1-2.8,1.3c-1.1,0.4-2.2,0.6-3.2,0.6c-1.7,0-3.3-0.4-4.8-1.3s-2.6-2.1-3.5-3.6s-1.3-3.2-1.3-5.1
	s0.4-3.6,1.3-5.1c0.9-1.5,2-2.7,3.5-3.6s3-1.3,4.8-1.3c1.1,0,2.1,0.2,3.2,0.5C227.3,0.8,228.2,1.3,229,1.9z"/>
<path class="st0" d="M248.9,18.9c0.1,0.1,0.1,0.3,0.1,0.4c0,0.2-0.1,0.4-0.2,0.4c-0.1,0.1-0.3,0.1-0.4,0.1s-0.3-0.1-0.4-0.2
	l-8.2-10.3l-4.1,3.9v5.9c0,0.2-0.1,0.3-0.2,0.4c-0.1,0.1-0.2,0.2-0.4,0.2s-0.3-0.1-0.4-0.2c-0.1-0.1-0.1-0.2-0.1-0.4V0.9
	c0-0.2,0.1-0.3,0.2-0.4c0.1-0.1,0.2-0.2,0.4-0.2s0.3,0.1,0.4,0.2c0.1,0.1,0.2,0.3,0.2,0.4v10.9l11.8-11.3c0.1-0.1,0.2-0.2,0.4-0.2
	c0.1,0,0.3,0.1,0.4,0.2c0.1,0.1,0.2,0.2,0.2,0.4c0,0.1-0.1,0.3-0.2,0.4l-7.6,7.2L248.9,18.9z"/>
<path class="st0" d="M255.8,1.4c0,0.6-0.1,1.1-0.4,1.6c-0.2,0.5-0.5,0.9-0.9,1.2c-0.4,0.3-0.7,0.4-1,0.4c-0.1,0-0.2,0-0.4-0.1
	C253,4.3,253,4.2,253,4.1c0-0.2,0-0.3,0.1-0.3c0.1-0.1,0.2-0.1,0.4-0.2c0.2-0.1,0.4-0.1,0.5-0.2c0.3-0.1,0.4-0.3,0.6-0.6
	c0.1-0.3,0.2-0.6,0.2-0.9c0-0.4-0.2-0.7-0.5-0.7s-0.5,0.1-0.7,0.2c-0.1-0.2-0.2-0.4-0.2-0.6s0.1-0.5,0.4-0.6
	c0.3-0.2,0.5-0.3,0.8-0.3c0.4,0,0.7,0.1,0.9,0.4C255.7,0.7,255.8,1,255.8,1.4z"/>
<path class="st0" d="M265.9,20c-1.3,0-2.5-0.2-3.5-0.7s-2-1.2-3-2.2c-0.1-0.1-0.2-0.2-0.2-0.4c0-0.1,0.1-0.3,0.2-0.4
	s0.3-0.2,0.4-0.2c0.2,0,0.3,0.1,0.5,0.2c0.7,0.9,1.5,1.5,2.5,1.9s2,0.7,3.1,0.7c1.4,0,2.6-0.3,3.5-1s1.4-1.6,1.4-2.7
	c0-0.9-0.3-1.6-0.7-2.2c-0.5-0.6-1-1-1.7-1.4s-1.6-0.7-2.7-1.2c-1.3-0.5-2.2-0.9-2.9-1.3c-0.7-0.4-1.3-0.9-1.8-1.6s-0.7-1.6-0.7-2.7
	c0-0.9,0.2-1.7,0.7-2.5c0.5-0.7,1.2-1.3,2.1-1.8c0.9-0.4,2-0.6,3.2-0.6c1.1,0,2.1,0.2,3.1,0.6s1.7,0.9,2.3,1.7
	c0.2,0.3,0.3,0.5,0.3,0.6s-0.1,0.3-0.2,0.4c-0.1,0.1-0.3,0.2-0.4,0.2s-0.3-0.1-0.4-0.2c-0.5-0.7-1.2-1.2-2-1.6S267.3,1,266.4,1
	c-1.4,0-2.5,0.3-3.5,1c-0.9,0.7-1.4,1.6-1.4,2.7c0,0.8,0.2,1.5,0.7,2c0.5,0.6,1,1,1.7,1.4c0.7,0.3,1.5,0.7,2.5,1.1
	c1.3,0.5,2.3,0.9,3,1.3c0.7,0.4,1.4,1,1.9,1.7s0.8,1.7,0.8,2.9c0,0.9-0.2,1.6-0.7,2.4c-0.5,0.7-1.2,1.3-2.1,1.8
	C268.1,19.8,267.1,20,265.9,20z"/>
<path class="st0" d="M294.1,0.3c0.9,0,1.8,0.3,2.6,0.9c0.8,0.6,1.5,1.3,2,2.3c0.5,0.9,0.8,2,0.8,3.1s-0.3,2.1-0.8,3.1
	s-1.2,1.7-2,2.3s-1.7,0.8-2.6,0.8h-4.7V18c0,0.5-0.1,0.9-0.4,1.2c-0.3,0.3-0.7,0.5-1.1,0.5c-0.5,0-0.8-0.2-1.1-0.5
	c-0.3-0.3-0.4-0.7-0.4-1.2V2c0-0.5,0.2-0.9,0.5-1.2s0.7-0.5,1.2-0.5C288.1,0.3,294.1,0.3,294.1,0.3z M294.1,9.6c0.3,0,0.7-0.1,1-0.4
	c0.3-0.3,0.6-0.7,0.8-1.1c0.2-0.5,0.3-1,0.3-1.5s-0.1-1-0.3-1.5c-0.2-0.5-0.5-0.9-0.8-1.1c-0.3-0.3-0.7-0.4-1-0.4h-4.7v6.1h4.7V9.6z
	"/>
<path class="st0" d="M321.9,10c0,1.8-0.4,3.5-1.2,5.1c-0.8,1.5-1.9,2.7-3.3,3.6s-3,1.3-4.7,1.3c-1.8,0-3.4-0.4-4.8-1.3
	s-2.5-2.1-3.3-3.6s-1.2-3.2-1.2-5.1c0-1.8,0.4-3.5,1.2-5c0.8-1.5,1.9-2.8,3.3-3.6c1.4-0.9,3-1.3,4.8-1.3s3.3,0.4,4.7,1.3
	c1.4,0.9,2.5,2.1,3.3,3.6C321.5,6.5,321.9,8.2,321.9,10z M318.3,10c0-1.2-0.2-2.4-0.7-3.4s-1.2-1.8-2-2.4c-0.9-0.6-1.9-0.9-2.9-0.9
	c-1.1,0-2.1,0.3-3,0.9s-1.5,1.4-2,2.4S307,8.7,307,10c0,1.2,0.2,2.4,0.7,3.4s1.2,1.8,2,2.4c0.9,0.6,1.9,0.9,3,0.9s2.1-0.3,2.9-0.9
	c0.9-0.6,1.6-1.4,2-2.4C318.1,12.4,318.3,11.2,318.3,10z"/>
<path class="st0" d="M341.6,17c0.2,0.1,0.4,0.3,0.5,0.6c0.1,0.2,0.2,0.5,0.2,0.8s-0.1,0.6-0.3,0.9c-0.3,0.3-0.7,0.5-1.3,0.5
	c-0.4,0-0.8-0.1-1.2-0.3c-1.3-0.8-2-2.3-2-4.6c0-0.7-0.2-1.2-0.7-1.6c-0.4-0.4-1-0.6-1.8-0.6h-5.1V18c0,0.5-0.1,0.9-0.4,1.2
	c-0.3,0.3-0.6,0.5-1,0.5c-0.5,0-1-0.2-1.4-0.5s-0.6-0.7-0.6-1.2V2c0-0.5,0.2-0.9,0.5-1.2s0.7-0.5,1.2-0.5h7.9c0.9,0,1.8,0.3,2.7,0.8
	c0.8,0.5,1.5,1.2,2,2.1s0.8,1.9,0.8,3.1c0,0.9-0.2,1.8-0.7,2.7c-0.5,0.9-1.1,1.6-1.9,2.1c1.1,0.8,1.8,1.9,1.9,3.3
	c0.1,0.3,0.1,0.6,0.1,0.9c0.1,0.6,0.1,1,0.2,1.3C341.2,16.7,341.4,16.9,341.6,17z M336,9.8c0.3,0,0.6-0.2,1-0.5
	c0.3-0.3,0.6-0.7,0.8-1.2c0.2-0.5,0.3-1.1,0.3-1.7c0-0.5-0.1-1-0.3-1.4c-0.2-0.4-0.5-0.8-0.8-1.1s-0.6-0.4-1-0.4h-6v6.3
	C330,9.8,336,9.8,336,9.8z"/>
<path class="st0" d="M359.1,0.3c0.5,0,0.9,0.1,1.2,0.4s0.5,0.7,0.5,1.2s-0.2,0.9-0.5,1.2s-0.7,0.4-1.2,0.4h-4.3V18
	c0,0.5-0.2,0.9-0.5,1.2c-0.3,0.3-0.8,0.5-1.3,0.5s-0.9-0.2-1.3-0.5c-0.3-0.3-0.5-0.7-0.5-1.2V3.5H347c-0.5,0-0.9-0.1-1.2-0.4
	c-0.3-0.3-0.5-0.7-0.5-1.2s0.2-0.8,0.5-1.1s0.7-0.4,1.2-0.4L359.1,0.3L359.1,0.3z"/>
<path class="st0" d="M368.7,3.5v4.9h5.9c0.5,0,0.9,0.2,1.2,0.5c0.3,0.3,0.5,0.7,0.5,1.2c0,0.4-0.2,0.8-0.5,1.1s-0.7,0.5-1.2,0.5
	h-5.9V18c0,0.5-0.2,0.9-0.5,1.2c-0.3,0.3-0.7,0.5-1.2,0.5s-0.9-0.2-1.3-0.5c-0.3-0.3-0.5-0.7-0.5-1.2V2c0-0.5,0.2-0.9,0.5-1.2
	s0.7-0.5,1.2-0.5h8.9c0.5,0,0.9,0.2,1.2,0.5c0.3,0.3,0.5,0.7,0.5,1.2c0,0.4-0.2,0.8-0.5,1.1s-0.7,0.5-1.2,0.5L368.7,3.5L368.7,3.5z"
	/>
<path class="st0" d="M399.6,10c0,1.8-0.4,3.5-1.2,5.1c-0.8,1.5-1.9,2.7-3.3,3.6s-3,1.3-4.7,1.3c-1.8,0-3.4-0.4-4.8-1.3
	s-2.5-2.1-3.3-3.6s-1.2-3.2-1.2-5.1c0-1.8,0.4-3.5,1.2-5c0.8-1.5,1.9-2.8,3.3-3.6c1.4-0.9,3-1.3,4.8-1.3s3.3,0.4,4.7,1.3
	c1.4,0.9,2.5,2.1,3.3,3.6C399.2,6.5,399.6,8.2,399.6,10z M396,10c0-1.2-0.2-2.4-0.7-3.4s-1.2-1.8-2-2.4c-0.9-0.6-1.9-0.9-2.9-0.9
	c-1.1,0-2.1,0.3-3,0.9s-1.5,1.4-2,2.4s-0.7,2.1-0.7,3.4c0,1.2,0.2,2.4,0.7,3.4s1.2,1.8,2,2.4c0.9,0.6,1.9,0.9,3,0.9s2.1-0.3,2.9-0.9
	c0.9-0.6,1.6-1.4,2-2.4C395.8,12.4,396,11.2,396,10z"/>
<path class="st0" d="M414.9,16.5c0.5,0,0.9,0.2,1.2,0.5c0.3,0.3,0.5,0.7,0.5,1.2s-0.2,0.9-0.5,1.2c-0.3,0.3-0.7,0.4-1.2,0.4H406
	c-0.5,0-0.9-0.2-1.2-0.5c-0.3-0.3-0.5-0.7-0.5-1.2V2c0-0.5,0.2-0.9,0.5-1.2s0.7-0.5,1.3-0.5c0.5,0,0.8,0.2,1.2,0.5
	c0.3,0.3,0.5,0.7,0.5,1.2v14.5H414.9z"/>
<path class="st0" d="M424.7,18c0,0.5-0.2,0.9-0.5,1.2c-0.3,0.3-0.7,0.5-1.2,0.5s-0.9-0.2-1.2-0.5c-0.3-0.3-0.5-0.7-0.5-1.2V2
	c0-0.5,0.2-0.9,0.5-1.2s0.7-0.5,1.3-0.5c0.5,0,0.8,0.2,1.2,0.5c0.3,0.3,0.5,0.7,0.5,1.2L424.7,18L424.7,18z"/>
<path class="st0" d="M448,10c0,1.8-0.4,3.5-1.2,5.1c-0.8,1.5-1.9,2.7-3.3,3.6s-3,1.3-4.7,1.3c-1.8,0-3.4-0.4-4.8-1.3
	s-2.5-2.1-3.3-3.6s-1.2-3.2-1.2-5.1c0-1.8,0.4-3.5,1.2-5c0.8-1.5,1.9-2.8,3.3-3.6c1.4-0.9,3-1.3,4.8-1.3s3.3,0.4,4.7,1.3
	c1.4,0.9,2.5,2.1,3.3,3.6C447.6,6.5,448,8.2,448,10z M444.5,10c0-1.2-0.2-2.4-0.7-3.4s-1.2-1.8-2-2.4c-0.9-0.6-1.9-0.9-2.9-0.9
	c-1.1,0-2.1,0.3-3,0.9s-1.5,1.4-2,2.4s-0.7,2.1-0.7,3.4c0,1.2,0.2,2.4,0.7,3.4s1.2,1.8,2,2.4c0.9,0.6,1.9,0.9,3,0.9s2.1-0.3,2.9-0.9
	c0.9-0.6,1.6-1.4,2-2.4C444.2,12.4,444.5,11.2,444.5,10z"/>
<path class="st0" d="M153.9,17c-0.2,0.1-0.4,0.3-0.5,0.6c-0.1,0.2-0.2,0.5-0.2,0.8s0.1,0.6,0.3,0.9c0.3,0.3,0.7,0.5,1.3,0.5
	c0.4,0,0.8-0.1,1.2-0.3c1.3-0.8,2-2.3,2-4.6c0-0.7,0.2-1.2,0.7-1.6c0.4-0.4,1-0.6,1.8-0.6h5.1V18c0,0.5,0.1,0.9,0.4,1.2
	c0.3,0.3,0.6,0.5,1,0.5c0.5,0,1-0.2,1.4-0.5s0.6-0.7,0.6-1.2V2c0-0.5-0.2-0.9-0.5-1.2s-0.7-0.5-1.2-0.5h-7.9c-0.9,0-1.8,0.3-2.7,0.8
	c-0.8,0.5-1.5,1.2-2,2.1s-0.8,1.9-0.8,3.1c0,0.9,0.2,1.8,0.7,2.7c0.5,0.9,1.1,1.6,1.9,2.1c-1.1,0.8-1.8,1.9-1.9,3.3
	c-0.1,0.3-0.1,0.6-0.1,0.9c-0.1,0.6-0.1,1-0.2,1.3C154.3,16.7,154.2,16.9,153.9,17z M159.5,9.8c-0.3,0-0.6-0.2-1-0.5
	c-0.3-0.3-0.6-0.7-0.8-1.2s-0.3-1.1-0.3-1.7c0-0.5,0.1-1,0.3-1.4s0.5-0.8,0.8-1.1s0.6-0.4,1-0.4h6v6.3
	C165.5,9.8,159.5,9.8,159.5,9.8z"/>
</svg>
