<?xml version="1.0" encoding="utf-8"?>
<!-- Generator: Adobe Illustrator 25.2.1, SVG Export Plug-In . SVG Version: 6.00 Build 0)  -->
<svg version="1.1" id="Layer_1" xmlns:svgjs="http://svgjs.com/svgjs"
	 xmlns="http://www.w3.org/2000/svg" xmlns:xlink="http://www.w3.org/1999/xlink" x="0px" y="0px" viewBox="0 0 512 512"
	 style="enable-background:new 0 0 512 512;" xml:space="preserve">
<g>
	<path d="M493,0H19C7.6,0-0.9,8.5,0.1,18.4l43.3,426.7c1,10,10.8,20.4,21.8,23.1L235.9,510c11,2.7,29,2.7,40,0l170.9-41.6
		c11-2.7,20.8-13,21.8-23l43.3-426.9C512.9,8.5,504.5,0,493,0z M410.8,154c0,0.1-0.1,0.1-0.1,0.1c-0.1,0-0.1,0-0.2-0.1l-133.7,48.2
		c-1.9,0.7-3,2.5-2.6,4.2c0.4,1.8,2.2,3.1,4.2,3.1h104c5.5,0,10.8,2.1,14.5,5.7c3.7,3.6,5.5,8.4,4.9,13.3l-16.3,134.1
		c-0.8,6.6-5.8,12.2-12.9,14.4l-110.4,34.2c-4.2,1.3-8.7,1.3-12.9,0l-109.9-33.5c-7.1-2.2-12.2-7.8-13-14.4l-7.4-60.7
		c-0.4-3.2,0.8-6.4,3.2-8.8c2.4-2.4,5.9-3.7,9.6-3.7h30.6c6.6,0,12.1,4.4,12.8,10.1l4.5,37.3l76.1,23.3l76.4-23.5l9.3-77.4H125.5
		c-6.6,0-12.1-4.3-12.8-10.1l-4.1-32.8c-0.6-5,2.6-9.8,7.9-11.7l138.3-50.2c1.6-0.6,2.5-2,2.1-3.5c-0.3-1.5-1.8-2.5-3.5-2.5H107.8
		c-4.4,0-8.1-2.9-8.5-6.7l-4.2-35.3c-0.3-2.1,0.5-4.2,2.2-5.8c1.6-1.6,3.9-2.5,6.4-2.5h304.7c2.4,0,4.8,0.9,6.4,2.5
		c1.6,1.6,2.4,3.7,2.1,5.9L410.8,154z"/>
</g>
</svg>
