<?xml version="1.0" encoding="utf-8"?>
<!-- Generator: Adobe Illustrator 25.2.1, SVG Export Plug-In . SVG Version: 6.00 Build 0)  -->
<svg version="1.1" xmlns="http://www.w3.org/2000/svg" xmlns:xlink="http://www.w3.org/1999/xlink" x="0px" y="0px"
	 viewBox="0 0 512 512" style="enable-background:new 0 0 512 512;" xml:space="preserve">
<style type="text/css">
	.st0{display:none;}
	.st1{display:inline;}
	.st2{fill:none;}
	.st3{fill:none;stroke:#000000;stroke-width:3;stroke-linecap:round;stroke-linejoin:round;stroke-miterlimit:10;}
</style>
<g id="Layer_2" class="st0">
	<g id="BOtmua.tif" class="st1">
		
			<image style="overflow:visible;" width="948" height="948" id="Layer_0" xlink:href="2DB4754B4C68A42D.png"  transform="matrix(0.5802 0 0 0.5802 -18.8769 -14.1769)">
		</image>
	</g>
</g>
<g id="Layer_1" xmlns:svgjs="http://svgjs.com/svgjs">
	<g>
		<g>
			<g>
				<g>
					<path d="M310.2,190.3c-0.4,0-0.7-0.1-1.1-0.1l-52.9,0.1v54h0.3c4.2-28.6,24.7-51,53.8-53.5L310.2,190.3z M479.3,0H32.7
						C14.6,0,0,14.6,0,32.6v446.6C0,497.3,14.6,512,32.7,512h446.6c18.1,0,32.7-14.7,32.7-32.7V32.6C511.9,14.6,497.4,0,479.3,0z
						 M329.6,190.8c32.6,2.2,51.7,29.4,51.7,62.6c0,34.7-28.1,62.7-62.8,62.7c-31.8,0-57.9-23.7-61.9-54.5h-0.3l-0.2,110
						c0.2,2.2,0.3,4.4,0.3,6.6c0,34.7-28.1,62.7-62.8,62.7c-34.7,0-62.7-28.1-62.7-62.7c0-33.7,21.4-61.5,54.8-63
						c-33.3-1.5-54.7-28.7-54.7-62.4c0-32,23.8-58.6,54.7-62.5l0-0.3c-34.3-4.3-60-36.4-53.9-73c4.9-29.2,30.1-51,59.7-52
						c2.7-0.1,5.3,0,8,0.2h112.2c2.2-0.2,4.4-0.3,6.6-0.3c34.7,0,62.7,28.1,62.7,62.7c0,32.5-18.2,58.7-49.8,61.9 M309.1,190.2
						l-52.9,0.1v54h0.3c4.2-28.6,24.7-51,53.8-53.5l0-0.5C309.8,190.3,309.5,190.3,309.1,190.2z M310.2,190.3c-0.4,0-0.7,0-1.1,0
						l-52.9,0v54h0.3c4.2-28.6,24.7-51,53.8-53.5L310.2,190.3z M256.2,190.3v54h0.3c4.2-28.6,24.7-51,53.8-53.5l0-1"/>
				</g>
			</g>
		</g>
	</g>
	<line class="st2" x1="185.8" y1="190.5" x2="185.8" y2="190.2"/>
	<line class="st2" x1="256.5" y1="244.3" x2="256.2" y2="244.3"/>
	<line class="st2" x1="310.2" y1="190.8" x2="310.2" y2="189.8"/>
	<line class="st2" x1="329.6" y1="190.8" x2="329.6" y2="190.5"/>
	<line class="st3" x1="157" y1="315.4" x2="256.3" y2="315.4"/>
	<line class="st3" x1="163.4" y1="190.3" x2="310.2" y2="190.3"/>
	<line class="st3" x1="256.3" y1="261.5" x2="256.3" y2="399"/>
	<line class="st3" x1="256" y1="65.4" x2="256" y2="244.3"/>
	<line class="st3" x1="328.5" y1="190.3" x2="339.5" y2="190.3"/>
</g>
</svg>
