<?xml version="1.0" encoding="utf-8"?>
<!-- Generator: Adobe Illustrator 25.2.1, SVG Export Plug-In . SVG Version: 6.00 Build 0)  -->
<svg version="1.1" id="Layer_1" xmlns:svgjs="http://svgjs.com/svgjs"
	 xmlns="http://www.w3.org/2000/svg" xmlns:xlink="http://www.w3.org/1999/xlink" x="0px" y="0px" viewBox="0 0 512 512"
	 style="enable-background:new 0 0 512 512;" xml:space="preserve">
<g>
	<g id="XMLID_122_">
		<g>
			<path d="M457.3,214.7c1.9-12,3.1-25.2,3.4-40c-0.1-63.4-30.5-85.8-36.3-96.3c8.6-48-1.4-69.9-6.1-77.3
				c-17.2-6.1-59.8,15.7-83.1,31.1c-38-11.1-118.2-10-148.3,2.9C131.4-4.7,102.1,1.4,102.1,1.4s-19,34-5,83.8
				c-18.3,23.3-31.9,39.7-31.9,83.4c0,10.5,0.6,20.3,1.8,29.8c15.7,82.7,81.3,118.4,145.6,124.5c-9.7,7.4-21.3,21.3-22.9,37.4
				c-12.2,7.9-36.7,10.5-55.7,4.5c-26.7-8.4-36.9-61.3-76.8-53.7c-8.6,1.6-6.9,7.3,0.6,12.2c12.2,7.9,23.6,17.7,32.5,38.7
				c6.8,16.1,21.1,44.9,66.2,44.9c17.9,0,30.5-2.1,30.5-2.1s0.3,41.1,0.3,57.1c0,18.4-24.9,23.6-24.9,32.5c0,3.5,8.2,3.9,14.9,3.9
				c13.1,0,40.3-10.9,40.3-30.1c0-15.2,0.2-66.4,0.2-75.4c0-19.6,10.5-25.8,10.5-25.8s1.3,104.5-2.5,118.6
				c-4.5,16.5-12.6,14.1-12.6,21.5c0,10.9,32.7,2.7,43.6-21.3c8.4-18.7,4.6-121.2,4.6-121.2l8.8-0.2c0,0,0.1,47-0.2,68.4
				c-0.3,22.2-2.6,50.3,10.6,63.6c8.7,8.7,35.2,24,35.2,10c0-8.1-18.6-14.8-18.6-36.7V368.5c11.3,0,13.6,33.2,13.6,33.2l4.1,61.8
				c0,0-2.7,22.5,24.3,31.9c9.5,3.3,30,4.3,30.9-1.4c1-5.6-24.6-13.9-24.8-31.4c-0.1-10.6,0.5-16.8,0.5-63
				c0-46.2-6.2-63.3-27.8-76.9C380.5,316.3,445.6,288.3,457.3,214.7z"/>
		</g>
	</g>
</g>
</svg>
