<?xml version="1.0" encoding="utf-8"?>
<!-- Generator: Adobe Illustrator 25.2.1, SVG Export Plug-In . SVG Version: 6.00 Build 0)  -->
<svg version="1.1" id="Layer_1" xmlns:svgjs="http://svgjs.com/svgjs"
	 xmlns="http://www.w3.org/2000/svg" xmlns:xlink="http://www.w3.org/1999/xlink" x="0px" y="0px" viewBox="0 0 512 512"
	 style="enable-background:new 0 0 512 512;" xml:space="preserve">
<g>
	<path d="M457.4,0H54.6C24.4,0,0,24.5,0,54.6v402.8C0,487.5,24.4,512,54.6,512h402.9c30.1,0,54.6-24.4,54.6-54.6V54.6
		C512,24.5,487.6,0,457.4,0z M201.1,365.5c0,10.2-8.3,18.5-18.5,18.5h-17.9c-10.2,0-18.5-8.3-18.5-18.5V219.6
		c0-10.2,8.3-18.5,18.5-18.5h17.9c10.2,0,18.5,8.3,18.5,18.5V365.5z M176.1,179.5c-16.4,0-29.7-13.3-29.7-29.7
		c0-16.4,13.3-29.7,29.7-29.7c16.4,0,29.7,13.3,29.7,29.7C205.7,166.2,192.5,179.5,176.1,179.5z M402.3,371.6
		c0,6.9-5.6,12.4-12.4,12.4h-30c-6.9,0-12.4-5.6-12.4-12.4v-90.2c0-23.4-9.6-39.4-30.1-39.4c-14.1,0-20.6,8.3-24.8,17.5v17.8v94.3
		c0,6.9-5.6,12.4-12.4,12.4h-24c-10.2,0-18.5-8.3-18.5-18.5v-152c0-6.9,5.6-12.4,12.4-12.4h30c6.9,0,12.4,5.6,12.4,12.4v3.3
		c10.4-8.5,24.6-14.5,42.5-14.5c37.1,0,67.2,18.8,67.2,72.3L402.3,371.6L402.3,371.6z"/>
</g>
</svg>
